<svg xmlns="http://www.w3.org/2000/svg" xmlns:xlink="http://www.w3.org/1999/xlink" id="Layer_1" x="0px" y="0px" viewBox="0 0 360 61" style="enable-background:new 0 0 360 61;" xml:space="preserve">
<style type="text/css">
	.st0{fill:#939192;}
	.st1{fill:#E21318;}
	.st2{fill:#2071B7;}
	.st3{fill:#96C025;}
	.st4{fill:#FFFFFF;}
	.st5{fill:#F39300;}
</style>
<g>
	<path class="st0" d="M108.2,40.6l3.1,5.3h5.3L101,19.7h-4.9L80.6,45.9h5.3l3.1-5.3H108.2z M98.2,23.7l7.6,12.9H90.6L98.2,23.7z"></path>
	<path class="st0" d="M118.6,19.7V39c0,6,3.6,7.2,9.5,7.2h11.5c5.9,0,9.5-1.2,9.5-7.2V19.7h-4.6V39c0,1.9-0.3,3.2-4.8,3.2H128   c-4.4,0-4.8-1.3-4.8-3.2V19.7H118.6z"></path>
	<polygon class="st0" points="169,45.9 169,23.8 181.6,23.8 181.6,19.7 151.8,19.7 151.8,23.8 164.3,23.8 164.3,45.9  "></polygon>
	<path class="st0" d="M207.4,46.2c6.8,0,9.5-2.9,9.5-10v-6.8c0-7.1-2.8-10-9.5-10H193c-6.8,0-9.5,2.9-9.5,10v6.8   c0,7.1,2.8,10,9.5,10H207.4z M188.2,37.5v-9.4c0-3.3,1.5-4.7,5.2-4.7H207c3.7,0,5.2,1.3,5.2,4.7v9.4c0,3.3-1.5,4.7-5.2,4.7h-13.7   C189.7,42.2,188.2,40.8,188.2,37.5z"></path>
	<path class="st0" d="M242.7,19.7h-21.1v26.2h4.6v-9.8h15.8c8,0,8.4-3.4,8.4-9C250.5,20.9,247.6,19.7,242.7,19.7z M245.8,29.2   c0,2-1.1,2.9-3.6,2.9h-16v-8.3h15.7c3,0,3.9,0.7,3.9,3V29.2z"></path>
	<path class="st0" d="M254,45.9l3.1-5.3h19.2l3.1,5.3h5.3l-15.5-26.2h-4.9l-15.5,26.2H254z M267.1,23.7l7.6,12.9h-15.2L267.1,23.7z"></path>
	<path class="st0" d="M298.7,23.5h3.6c8.6,0,8.6,0.6,8.7,4.1l0,0.6h4.4v-1.5c0-5.3-3-7.2-11.1-7.2h-7.3c-6.9,0-11,1.2-11,7.6   c0,7.5,4.6,7.9,14.3,7.9h6.4c4.2,0,4.8,0.7,4.8,3.3c0,3-0.8,4-5.7,4h-10.5c-4.5,0-4.9-1.4-4.9-3v-2.4h-4.4v2.5c0,6.1,5,6.9,9.9,6.9   h9.4c4,0,10.6,0,10.6-7.2v-1.6c0-4.7-3.1-6.8-10-6.8h-10c-5.3,0-5.6-1-5.6-3.3C290.6,24,291.8,23.5,298.7,23.5z"></path>
	<path class="st0" d="M340,30.6h-10c-5.3,0-5.6-1-5.6-3.3c0-3.2,1.2-3.8,8.2-3.8h3.6c8.6,0,8.6,0.6,8.7,4.1l0,0.6h4.4v-1.5   c0-5.3-3-7.2-11.1-7.2H331c-6.9,0-11,1.2-11,7.6c0,7.5,4.6,7.9,14.3,7.9h6.4c4.2,0,4.8,0.7,4.8,3.3c0,3-0.8,4-5.7,4h-10.5   c-4.5,0-4.9-1.4-4.9-3v-2.4h-4.4v2.5c0,6.1,5,6.9,9.9,6.9h9.4c4,0,10.6,0,10.6-7.2v-1.6C350,32.7,346.9,30.6,340,30.6z"></path>
	<path class="st1" d="M21.6,38.8c1.9-0.3,3.4-0.4,5.2-0.4c1.7,0,3.3,0.1,5.2,0.4c0.5,0.1,1.1-0.1,1.1-0.8c0-0.6-0.2-1.2-0.3-1.7   c-0.1-0.5-0.4-0.9-1.5-1.2c-1-0.3-2.9-0.7-4.5-0.7c-1.6,0-3.5,0.4-4.5,0.7c-1.1,0.4-1.3,0.7-1.5,1.2c-0.1,0.5-0.3,1.1-0.3,1.7   C20.5,38.7,21,38.9,21.6,38.8z"></path>
	<path class="st1" d="M10,47.2c0,6.5,5.3,11.9,11.9,11.9h15.8c1.3,0,2.4-1.1,2.4-2.4V36.5c0-2.9-2.4-5.3-5.3-5.3H11.2   c-0.7,0-1.2,0.5-1.2,1.2V47.2z M21.7,55.1l0.5-0.6h8.7l0.5,0.6H21.7z M29.5,52.7l0.4,0.5h-6.6l0.4-0.5H29.5z M21.2,50.8   c-0.5,0-1.1-0.2-1.6-1.1c-0.1-0.2-0.2-0.4-0.4-0.7h7.5h7.5c-0.1,0.2-0.2,0.5-0.4,0.7c-0.5,0.8-1.1,1.1-1.6,1.1h-5.6H21.2z    M33.6,55.8l-4-3.8h1.5l4.8,3.8H33.6z M18.2,44.5c0.4-3.1,0.7-5.7,1-8c0.1-0.9,0.5-1.6,2.1-2.2c1.1-0.4,2.9-0.8,5.3-0.8   c2.4,0,4.3,0.5,5.3,0.8c1.6,0.6,2,1.3,2.1,2.2c0.3,2.3,0.7,5,1,8c0,0.2,0.1,0.9-0.1,1.8c-0.1,0.6-0.3,1.3-0.6,1.9h-7.8h-7.8   c-0.3-0.6-0.5-1.3-0.6-1.9C18.2,45.4,18.2,44.7,18.2,44.5z M22.1,52h1.5l-4,3.8h-2.7L22.1,52z"></path>
	<path class="st1" d="M22.1,45.9c0.7-0.2,0.7-1.4,0.3-2.2c-0.4-0.8-1.1-1-1.8-0.8c-0.7,0.2-1,0.8-0.6,1.6   C20.3,45.2,21.4,46.1,22.1,45.9z"></path>
	<path class="st1" d="M31.1,43.7c-0.4,0.8-0.3,2,0.3,2.2c0.7,0.2,1.7-0.7,2.1-1.4c0.4-0.8,0-1.4-0.6-1.6   C32.2,42.7,31.5,42.9,31.1,43.7z"></path>
	<path class="st2" d="M61.7,9.7c0.3,0,0.5-0.2,0.5-0.5c0-0.3-0.2-0.5-0.5-0.5c-0.3,0-0.5,0.2-0.5,0.5C61.1,9.4,61.4,9.7,61.7,9.7z"></path>
	<path class="st2" d="M49.5,17.6h6.3v-7h-6.3c-0.4,0-0.7,0.3-0.7,0.7v5.5C48.8,17.2,49.1,17.6,49.5,17.6z M52.3,14.7   c1.3,0,2.4,1.1,2.4,2.4h-0.5c0-1.1-0.9-1.9-1.9-1.9c-1.1,0-1.9,0.9-1.9,1.9h-0.5C49.9,15.8,51,14.7,52.3,14.7z"></path>
	<path class="st2" d="M46.4,29.9h23.5c0.7,0,1.2-0.5,1.2-1.2V13.8c0-6.5-5.3-11.9-11.9-11.9H43.4C42.1,1.9,41,3,41,4.3v20.2   C41,27.5,43.4,29.9,46.4,29.9z M51.6,27.7c0,0.2-0.2,0.3-0.3,0.3h-2.1c-0.2,0-0.3-0.1-0.3-0.3v-2.1h2.7V27.7z M63.2,27.7   c0,0.2-0.2,0.3-0.3,0.3h-2.1c-0.2,0-0.3-0.1-0.3-0.3v-2.1h2.7V27.7z M64.7,24.6c0,0.2-0.1,0.3-0.3,0.3H47.8c-0.2,0-0.3-0.1-0.3-0.3   v-1.2c0-0.2,0.1-0.3,0.3-0.3h16.6c0.2,0,0.3,0.1,0.3,0.3V24.6z M44.8,12.4c0-0.4,0.3-0.6,0.6-0.6h0.3c0-0.4,0.2-0.8,0.8-0.8h1.7   V9.2c0-0.9,0.7-1.6,1.6-1.6h12.6c0.9,0,1.6,0.7,1.6,1.6V11h1.7c0.6,0,0.7,0.5,0.8,0.8h0.3c0.4,0,0.6,0.3,0.6,0.6v3.4   c0,0.4-0.3,0.6-0.6,0.6h-1c-0.4,0-0.6-0.3-0.6-0.6v-3.4c0-0.4,0.3-0.6,0.6-0.6h0.2c0-0.3-0.1-0.3-0.3-0.3h-1.7v10.8H48.2V11.5h-1.7   c-0.2,0-0.2,0.1-0.3,0.3h0.2c0.4,0,0.6,0.3,0.6,0.6v3.4c0,0.4-0.3,0.6-0.6,0.6h-1c-0.4,0-0.6-0.3-0.6-0.6V12.4z"></path>
	<path class="st2" d="M50.2,19c-0.7,0-1.2,0.5-1.2,1.2c0,0.7,0.5,1.2,1.2,1.2c0.7,0,1.2-0.5,1.2-1.2C51.4,19.5,50.9,19,50.2,19z"></path>
	<path class="st2" d="M50.4,9.7c0.3,0,0.5-0.2,0.5-0.5c0-0.3-0.2-0.5-0.5-0.5c-0.3,0-0.5,0.2-0.5,0.5C49.9,9.4,50.1,9.7,50.4,9.7z"></path>
	<path class="st2" d="M61.9,19c-0.7,0-1.2,0.5-1.2,1.2c0,0.7,0.5,1.2,1.2,1.2c0.7,0,1.2-0.5,1.2-1.2C63.1,19.5,62.5,19,61.9,19z"></path>
	<path class="st2" d="M56.3,17.6h6.3c0.4,0,0.7-0.3,0.7-0.7v-5.5c0-0.4-0.3-0.7-0.7-0.7h-6.3V17.6z"></path>
	<path class="st2" d="M53.7,10.1h4.8c0.4,0,0.7-0.3,0.7-0.7V8.8c0-0.4-0.3-0.7-0.7-0.7h-4.8c-0.4,0-0.7,0.3-0.7,0.7v0.7   C53,9.8,53.3,10.1,53.7,10.1z"></path>
	<rect x="31.2" y="16.7" transform="matrix(0.9891 -0.1475 0.1475 0.9891 -2.2019 5.0806)" class="st3" width="3.9" height="1.4"></rect>
	<path class="st3" d="M31.9,19.3c-0.2,0-0.4,0.2-0.3,0.5l0.2,1.3c0,0.2,0.2,0.4,0.5,0.3l3.1-0.5c0.2,0,0.4-0.2,0.3-0.5l-0.2-1.3   c0-0.2-0.2-0.4-0.5-0.3L31.9,19.3z"></path>
	<rect x="21.4" y="18.2" transform="matrix(0.9891 -0.1474 0.1474 0.9891 -2.5248 3.6451)" class="st3" width="3.9" height="1.4"></rect>
	<rect x="25.3" y="10.8" transform="matrix(0.989 -0.148 0.148 0.989 -1.3683 4.5329)" class="st3" width="8.9" height="1.4"></rect>
	<rect x="19.2" y="20.9" transform="matrix(0.9891 -0.1473 0.1473 0.9891 -2.9183 3.3242)" class="st3" width="3.5" height="1"></rect>
	<rect x="16.8" y="21.3" transform="matrix(0.989 -0.1479 0.1479 0.989 -3.0349 2.8803)" class="st3" width="2.1" height="1"></rect>
	<rect x="17" y="22.8" transform="matrix(0.9891 -0.1474 0.1474 0.9891 -3.2383 2.8511)" class="st3" width="1.2" height="1"></rect>
	<rect x="18.6" y="22.5" transform="matrix(0.989 -0.1482 0.1482 0.989 -3.2007 3.1069)" class="st3" width="1.2" height="1"></rect>
	<rect x="26.3" y="17.4" transform="matrix(0.989 -0.148 0.148 0.989 -2.3718 4.3816)" class="st3" width="3.9" height="1.4"></rect>
	<path class="st3" d="M38.8,29.9c0.7,0,1.2-0.5,1.2-1.2V3.1c0-0.7-0.5-1.2-1.2-1.2h-17C15.3,1.9,10,7.2,10,13.8v14.9   c0,0.7,0.5,1.2,1.2,1.2H38.8z M15,11.7l19.1-2.9c0.6-0.1,1.2,0.3,1.3,1l1.6,11c0.1,0.6-0.3,1.2-1,1.3L17,24.9   c-0.6,0.1-1.2-0.3-1.3-1l-1.6-11C14,12.4,14.4,11.8,15,11.7z"></path>
	<rect x="16.5" y="18.9" transform="matrix(0.989 -0.1477 0.1477 0.989 -2.6918 2.9353)" class="st3" width="3.9" height="1.4"></rect>
	<path class="st3" d="M16.7,18.2l2.4-0.4c0.3,0,0.4-0.3,0.4-0.5l-0.2-1.4c0-0.3-0.3-0.4-0.6-0.4l-2.4,0.4c-0.3,0-0.4,0.3-0.4,0.5   l0.2,1.4C16.2,18.1,16.5,18.2,16.7,18.2z"></path>
	<path class="st4" d="M60.4,27.7c0,0.2,0.2,0.3,0.3,0.3h2.1c0.2,0,0.3-0.1,0.3-0.3v-2.1h-2.7V27.7z"></path>
	<path class="st4" d="M48.9,27.7c0,0.2,0.2,0.3,0.3,0.3h2.1c0.2,0,0.3-0.1,0.3-0.3v-2.1h-2.7V27.7z"></path>
	<path class="st4" d="M64.3,23.1H47.8c-0.2,0-0.3,0.1-0.3,0.3v1.2c0,0.2,0.1,0.3,0.3,0.3h16.6c0.2,0,0.3-0.1,0.3-0.3v-1.2   C64.7,23.2,64.5,23.1,64.3,23.1z"></path>
	<path class="st4" d="M52.3,15.2c1.1,0,1.9,0.9,1.9,1.9h0.5c0-1.3-1.1-2.4-2.4-2.4c-1.3,0-2.4,1.1-2.4,2.4h0.5   C50.4,16.1,51.2,15.2,52.3,15.2z"></path>
	<path class="st4" d="M45.4,16.4h1c0.4,0,0.6-0.3,0.6-0.6v-3.4c0-0.4-0.3-0.6-0.6-0.6h-0.2c0-0.3,0.1-0.3,0.3-0.3h1.7v10.8h15.7   V11.5h1.7c0.2,0,0.2,0.1,0.3,0.3h-0.2c-0.4,0-0.6,0.3-0.6,0.6v3.4c0,0.4,0.3,0.6,0.6,0.6h1c0.4,0,0.6-0.3,0.6-0.6v-3.4   c0-0.4-0.3-0.6-0.6-0.6h-0.3c0-0.4-0.2-0.8-0.8-0.8h-1.7V9.2c0-0.9-0.7-1.6-1.6-1.6H49.8c-0.9,0-1.6,0.7-1.6,1.6V11h-1.7   c-0.6,0-0.7,0.5-0.8,0.8h-0.3c-0.4,0-0.6,0.3-0.6,0.6v3.4C44.8,16.2,45.1,16.4,45.4,16.4z M50.2,21.4c-0.7,0-1.2-0.5-1.2-1.2   c0-0.7,0.5-1.2,1.2-1.2c0.7,0,1.2,0.5,1.2,1.2C51.4,20.9,50.9,21.4,50.2,21.4z M61.9,21.4c-0.7,0-1.2-0.5-1.2-1.2   c0-0.7,0.5-1.2,1.2-1.2c0.7,0,1.2,0.5,1.2,1.2C63.1,20.9,62.5,21.4,61.9,21.4z M62.5,10.6c0.4,0,0.7,0.3,0.7,0.7v5.5   c0,0.4-0.3,0.7-0.7,0.7h-6.3v-7H62.5z M61.7,8.6c0.3,0,0.5,0.2,0.5,0.5c0,0.3-0.2,0.5-0.5,0.5c-0.3,0-0.5-0.2-0.5-0.5   C61.1,8.8,61.4,8.6,61.7,8.6z M53,8.8c0-0.4,0.3-0.7,0.7-0.7h4.8c0.4,0,0.7,0.3,0.7,0.7v0.7c0,0.4-0.3,0.7-0.7,0.7h-4.8   c-0.4,0-0.7-0.3-0.7-0.7V8.8z M50.4,8.6c0.3,0,0.5,0.2,0.5,0.5c0,0.3-0.2,0.5-0.5,0.5c-0.3,0-0.5-0.2-0.5-0.5   C49.9,8.8,50.1,8.6,50.4,8.6z M48.8,11.3c0-0.4,0.3-0.7,0.7-0.7h6.3v7h-6.3c-0.4,0-0.7-0.3-0.7-0.7V11.3z"></path>
	<polygon class="st5" points="52.7,43.8 55.7,40 55.5,39.9 52.5,43.7  "></polygon>
	<rect x="54.4" y="50.8" transform="matrix(0.3364 -0.9417 0.9417 0.3364 -12.264 86.6807)" class="st5" width="1.9" height="2.5"></rect>
	<rect x="56" y="46.5" transform="matrix(0.3366 -0.9416 0.9416 0.3366 -7.2558 85.2756)" class="st5" width="1.9" height="2.5"></rect>
	<path class="st5" d="M59.1,46.1c0.2,0.1,0.4,0,0.5-0.2l1.3-3.6c0.1-0.2,0-0.4-0.2-0.5l-4.6-1.6l-3,3.8L59.1,46.1z"></path>
	<rect x="50.4" y="44.6" transform="matrix(0.3367 -0.9416 0.9416 0.3367 -9.07 78.744)" class="st5" width="1.9" height="2.5"></rect>

		<rect x="49.7" y="46.7" transform="matrix(0.3366 -0.9416 0.9416 0.3366 -11.5742 79.4451)" class="st5" width="1.9" height="2.5"></rect>
	<path class="st5" d="M53.9,36.5c-0.1,0.2,0,0.3,0.2,0.4l6.4,2.3c0.2,0.1,0.3,0,0.4-0.2l0.5-1.4l-7-2.5L53.9,36.5z"></path>
	<path class="st5" d="M61.4,36.5L55,34.2c-0.2-0.1-0.3,0-0.4,0.2l-0.1,0.3l7,2.5l0.1-0.3C61.7,36.7,61.6,36.5,61.4,36.5z"></path>
	<path class="st5" d="M41,57.9c0,0.7,0.5,1.2,1.2,1.2h17c6.5,0,11.9-5.3,11.9-11.9V32.3c0-0.7-0.5-1.2-1.2-1.2H42.2   c-0.7,0-1.2,0.5-1.2,1.2V57.9z M63.4,43.6l-5,11.4c-0.3,0.7-1.1,1-1.8,0.7l6.2-14C63.5,42.2,63.7,43,63.4,43.6z M52,34.9   c0.6-1.1,1.9-1.6,3-1.2l6.7,2.4c1.2,0.4,1.9,1.7,1.6,2.9l-0.5,2.1L51,36.8L52,34.9z M46.7,52.9l4.2-15.8l11.9,4.3l-6.7,14.9   c-0.3,0.6-0.9,0.8-1.4,0.7c-0.3,0.2-0.7,0.3-1,0.2l-5.7-2c-0.4-0.1-0.6-0.4-0.7-0.8C46.8,54.1,46.5,53.5,46.7,52.9z"></path>

		<rect x="48.9" y="48.8" transform="matrix(0.3367 -0.9416 0.9416 0.3367 -14.0846 80.1343)" class="st5" width="1.9" height="2.5"></rect>
	<path class="st5" d="M49.3,53.3l0.6,0.2l0.6-1.7l-2.4-0.8C47.9,51.9,48.4,52.9,49.3,53.3z"></path>
	<path class="st5" d="M50.7,43.1l0.6,0.2l3-3.8l-2.1-0.7c-0.2-0.1-0.4,0-0.5,0.2l-1.3,3.6C50.4,42.7,50.5,43,50.7,43.1z"></path>

		<rect x="50.9" y="51.9" transform="matrix(0.3366 -0.9416 0.9416 0.3366 -15.6842 84.0986)" class="st5" width="1.9" height="2.5"></rect>

		<rect x="51.7" y="49.8" transform="matrix(0.3364 -0.9417 0.9417 0.3364 -13.1693 83.4183)" class="st5" width="1.9" height="2.5"></rect>
	<path class="st5" d="M53.1,54.6l0.6,0.2c1,0.3,2-0.2,2.4-1.1l-2.4-0.8L53.1,54.6z"></path>
	<rect x="55.2" y="48.7" transform="matrix(0.3363 -0.9418 0.9418 0.3363 -9.7525 85.9921)" class="st5" width="1.9" height="2.5"></rect>

		<rect x="52.4" y="47.7" transform="matrix(0.3366 -0.9416 0.9416 0.3366 -10.6686 82.7083)" class="st5" width="1.9" height="2.5"></rect>
	<rect x="53.2" y="45.5" transform="matrix(0.3363 -0.9418 0.9418 0.3363 -8.1486 82.0348)" class="st5" width="1.9" height="2.5"></rect>
	<polygon class="st4" points="29.6,52 33.6,55.8 35.9,55.8 31.1,52  "></polygon>
	<polygon class="st4" points="23.6,52 22.1,52 16.9,55.8 19.6,55.8  "></polygon>
	<polygon class="st4" points="29.9,53.2 29.5,52.7 23.7,52.7 23.3,53.2  "></polygon>
	<polygon class="st4" points="22.2,54.5 21.7,55.1 31.4,55.1 30.9,54.5  "></polygon>
	<path class="st4" d="M33.9,49.8c0.1-0.2,0.2-0.4,0.4-0.7h-7.5h-7.5c0.1,0.2,0.2,0.5,0.4,0.7c0.5,0.8,1.1,1.1,1.6,1.1h5.6h5.6   C32.8,50.8,33.4,50.6,33.9,49.8z"></path>
	<path class="st4" d="M18.9,48.2h7.8h7.8c0.3-0.6,0.5-1.3,0.6-1.9c0.2-0.9,0.1-1.6,0.1-1.8c-0.4-3.1-0.7-5.7-1-8   c-0.1-0.9-0.5-1.6-2.1-2.2c-1.1-0.4-2.9-0.8-5.3-0.8c-2.4,0-4.3,0.5-5.3,0.8c-1.6,0.6-2,1.3-2.1,2.2c-0.3,2.3-0.7,5-1,8   c0,0.2-0.1,0.9,0.1,1.8C18.5,46.9,18.7,47.6,18.9,48.2z M33.6,44.5c-0.4,0.8-1.4,1.7-2.1,1.4c-0.7-0.2-0.7-1.4-0.3-2.2   c0.4-0.8,1.1-1,1.8-0.8C33.6,43.1,33.9,43.7,33.6,44.5z M20.7,36.4c0.1-0.5,0.4-0.9,1.5-1.2c1-0.3,2.9-0.7,4.5-0.7   c1.6,0,3.5,0.4,4.5,0.7c1.1,0.4,1.3,0.7,1.5,1.2c0.1,0.5,0.3,1.1,0.3,1.7c0,0.6-0.6,0.8-1.1,0.8c-1.9-0.3-3.4-0.4-5.2-0.4   c-1.7,0-3.3,0.1-5.2,0.4c-0.5,0.1-1.1-0.1-1.1-0.8C20.5,37.5,20.6,36.9,20.7,36.4z M20.6,42.9c0.7-0.2,1.4,0,1.8,0.8   c0.4,0.8,0.3,2-0.3,2.2c-0.7,0.2-1.7-0.7-2.1-1.4C19.6,43.7,19.9,43.1,20.6,42.9z"></path>
	<path class="st4" d="M17,24.9l19.1-2.9c0.6-0.1,1.1-0.7,1-1.3l-1.6-11c-0.1-0.6-0.7-1.1-1.3-1L15,11.7c-0.6,0.1-1.1,0.7-1,1.3   l1.6,11C15.8,24.6,16.4,25,17,24.9z M16.7,21.5l2.1-0.3l0.2,1l-2.1,0.3L16.7,21.5z M17.1,23.9l-0.1-1l1.2-0.2l0.1,1L17.1,23.9z    M18.7,23.6l-0.2-1l1.2-0.2l0.1,1L18.7,23.6z M19.3,22.1l-0.1-1l3.5-0.5l0.1,1L19.3,22.1z M26.4,19.1l-0.2-1.4l3.9-0.6l0.2,1.4   L26.4,19.1z M35.4,19.2l0.2,1.3c0,0.2-0.1,0.4-0.3,0.5l-3.1,0.5c-0.2,0-0.4-0.1-0.5-0.3l-0.2-1.3c0-0.2,0.1-0.4,0.3-0.5l3.1-0.5   C35.2,18.9,35.4,19,35.4,19.2z M35,16.4l0.2,1.4l-3.9,0.6L31.1,17L35,16.4z M34.1,10.1l0.2,1.4l-8.8,1.3l-0.2-1.4L34.1,10.1z    M25.2,17.9l0.2,1.4l-3.9,0.6l-0.2-1.4L25.2,17.9z M20.5,20l-3.9,0.6l-0.2-1.4l3.9-0.6L20.5,20z M16.4,15.8l2.4-0.4   c0.3,0,0.5,0.1,0.6,0.4l0.2,1.4c0,0.3-0.1,0.5-0.4,0.5l-2.4,0.4c-0.3,0-0.5-0.1-0.5-0.4L16,16.4C15.9,16.1,16.1,15.9,16.4,15.8z"></path>
	<path class="st4" d="M63.3,39c0.3-1.2-0.4-2.5-1.6-2.9L55,33.7c-1.2-0.4-2.5,0.1-3,1.2l-1,1.9l11.9,4.3L63.3,39z M60.9,39   c-0.1,0.2-0.2,0.2-0.4,0.2l-6.4-2.3c-0.2-0.1-0.2-0.2-0.2-0.4l0.5-1.4l7,2.5L60.9,39z M61.6,36.8l-0.1,0.3l-7-2.5l0.1-0.3   c0.1-0.2,0.2-0.2,0.4-0.2l6.4,2.3C61.6,36.5,61.7,36.7,61.6,36.8z"></path>
	<path class="st4" d="M47.3,54.3c0.1,0.3,0.3,0.7,0.7,0.8l5.7,2c0.4,0.1,0.7,0,1-0.2c0.6,0.1,1.2-0.2,1.4-0.7l6.7-14.9l-11.9-4.3   l-4.2,15.8C46.5,53.5,46.8,54.1,47.3,54.3z M54.9,48.5l-0.6,1.7l-2.4-0.8l0.6-1.7L54.9,48.5z M52.6,47.2l0.6-1.7l2.4,0.8L55,48.1   L52.6,47.2z M54.1,50.6l-0.6,1.7l-2.4-0.8l0.6-1.7L54.1,50.6z M53.3,52.7l-0.6,1.7l-2.4-0.8l0.6-1.7L53.3,52.7z M53.7,54.8   l-0.6-0.2l0.6-1.7l2.4,0.8C55.8,54.7,54.7,55.2,53.7,54.8z M56.2,53.3l-2.4-0.8l0.6-1.7l2.4,0.8L56.2,53.3z M57,51.2l-2.4-0.8   l0.6-1.7l2.4,0.8L57,51.2z M57.8,49.1l-2.4-0.8l0.6-1.7l2.4,0.8L57.8,49.1z M60.7,41.7c0.2,0.1,0.3,0.3,0.2,0.5l-1.3,3.6   c-0.1,0.2-0.3,0.3-0.5,0.2l-6-2.1l3-3.8L60.7,41.7z M55.7,40l-3,3.8l-0.2-0.1l3-3.8L55.7,40z M50.5,42.5l1.3-3.6   c0.1-0.2,0.3-0.3,0.5-0.2l2.1,0.7l-3,3.8l-0.6-0.2C50.5,43,50.4,42.7,50.5,42.5z M50.5,44.5l2.4,0.8l-0.6,1.7l-2.4-0.8L50.5,44.5z    M49.7,46.6l2.4,0.8l-0.6,1.7l-2.4-0.8L49.7,46.6z M49,48.8l2.4,0.8l-0.6,1.7l-2.4-0.8L49,48.8z M48.2,50.9l2.4,0.8l-0.6,1.7   l-0.6-0.2C48.4,52.9,47.9,51.9,48.2,50.9z"></path>
	<path class="st4" d="M62.9,41.9l-6.2,14c0.7,0.3,1.5-0.1,1.8-0.7l5-11.4C63.7,43,63.5,42.2,62.9,41.9z"></path>
</g>
</svg>
